<svg xmlns="http://www.w3.org/2000/svg" xmlns:xlink="http://www.w3.org/1999/xlink" viewBox="0 0 1220.29 743.63"><defs><style>.cls-1,.cls-13,.cls-4{fill:none;}.cls-2{clip-path:url(#clip-path);}.cls-3{fill:#0455a4;}.cls-4{stroke:#ffac59;}.cls-13,.cls-4{stroke-miterlimit:10;}.cls-5{fill:#fff;}.cls-6{isolation:isolate;}.cls-7{fill:#ffac59;}.cls-8{fill:#213430;}.cls-9{fill:#402b16;}.cls-10{fill:#211912;}.cls-11{fill:#624c36;}.cls-12{fill:#ffebd6;}.cls-13{stroke:#213430;}</style><clipPath id="clip-path" transform="translate(-359.74 -138.07)"><rect class="cls-1" width="1920" height="1080"/></clipPath></defs><g id="Layer_2" data-name="Layer 2"><g id="Isometric_Data_3" data-name="Isometric Data 3"><g id="Artwork"><g class="cls-2"><path class="cls-3" d="M566.66,738.07c1,11.16.17,22.72-4.39,32.95s-13.22,19-24,21.86-23.62-1.15-29.49-10.69c-6.49-10.58-3.46-24.18-5.31-36.46s-8.68-23.23-14.93-34-12.25-22.41-12.15-34.87c.09-10.91,8.13-27,20.67-28,11.13-.95,26.41,12.54,34.12,19.51C550.91,686.2,564.27,711.41,566.66,738.07Z" transform="translate(-359.74 -138.07)"/><path class="cls-4" d="M681.35,232.09c96-8.52,188.23,49.13,284.48,43.46,46.45-2.73,90.58-20.08,134.39-35.73s89.59-30,136-26.32,93.86,29.28,110.43,72.75c14.28,37.45,3.34,80-14.64,115.84s-42.77,68.09-58.46,105-21,81.56,0,115.66c15.33,24.79,42,40,68.36,52.52s54.12,23.63,75.31,43.65,34.43,51.88,23.34,78.84c-10.49,25.5-39.62,39.06-67.18,40.23s-54.43-7.51-81.13-14.42a658.47,658.47,0,0,0-334.31,1.66c-62.67,16.88-123.72,43.23-188.53,46.63S632,848.31,607,788.43c-19.62-46.91-5.67-101.26-17.24-150.78-11.36-48.61-45.93-87.85-71-131-28.11-48.49-32.69-93.79-12.33-145.28,17.93-45.38,53.76-82.81,96.7-105.65A205.94,205.94,0,0,1,681.35,232.09Z" transform="translate(-359.74 -138.07)"/><path class="cls-4" d="M710.34,241.17c96-8.51,188.23,49.13,284.49,43.47,46.44-2.74,90.57-20.08,134.38-35.73s89.59-30,136-26.32,93.86,29.27,110.44,72.74c14.27,37.45,3.33,80-14.65,115.84s-42.77,68.09-58.46,105-21,81.56,0,115.65c15.32,24.8,42,40.05,68.35,52.52S1425,708,1446.2,728s34.43,51.88,23.35,78.84c-10.49,25.51-39.63,39.07-67.19,40.23s-54.43-7.51-81.13-14.42a658.36,658.36,0,0,0-334.31,1.67c-62.67,16.88-123.71,43.23-188.53,46.62S661,857.39,636,797.52c-19.61-46.91-5.67-101.27-17.24-150.78-11.36-48.62-45.93-87.86-71-131-28.11-48.5-32.69-93.8-12.33-145.29,17.94-45.38,53.77-82.81,96.7-105.64A206.13,206.13,0,0,1,710.34,241.17Z" transform="translate(-359.74 -138.07)"/><path class="cls-3" d="M691.73,217.69c96-8.52,188.23,49.13,284.48,43.46,46.45-2.73,90.57-20.08,134.39-35.73s89.58-30,136-26.32,93.87,29.28,110.44,72.75c14.28,37.45,3.34,80-14.64,115.84s-42.77,68.09-58.46,105-21.05,81.56,0,115.66c15.33,24.79,42,40,68.36,52.52s54.11,23.63,75.31,43.65,34.43,51.88,23.34,78.84c-10.49,25.51-39.63,39.07-67.18,40.23s-54.43-7.51-81.13-14.42A658.51,658.51,0,0,0,968.3,810.8C905.63,827.68,844.59,854,779.78,857.43S642.38,833.91,617.34,774c-19.62-46.91-5.67-101.27-17.24-150.78-11.37-48.62-45.93-87.86-71-131.06-28.1-48.49-32.68-93.79-12.33-145.28,17.94-45.38,53.77-82.81,96.7-105.64A206.06,206.06,0,0,1,691.73,217.69Z" transform="translate(-359.74 -138.07)"/><circle class="cls-3" cx="124" cy="169.12" r="10.13"/><circle class="cls-5" cx="124" cy="169.12" r="4.36"/><circle class="cls-3" cx="1123.95" cy="263.01" r="10.13"/><circle class="cls-5" cx="1123.95" cy="263.01" r="4.36"/><g class="cls-6"><path class="cls-7" d="M475.52,582.55c-.64-.16-1.24-.34-1.84-.52l-.54-.17c-.58-.18-1.15-.38-1.69-.59l-.11,0c-.43-.17-.84-.36-1.25-.55l-.59-.25c-.59-.28-1.15-.58-1.69-.89-4.61-2.66-7.22-6.31-7.21-10.07L460.46,619c0,3.76,2.6,7.41,7.21,10.07.54.31,1.1.61,1.69.89l.58.25c.41.19.81.37,1.24.54h0l.11,0c.54.21,1.11.41,1.69.59l.54.17.6.19,1.24.33L1306.12,837l.14-49.54Z" transform="translate(-359.74 -138.07)"/><path class="cls-8" d="M1521.46,527.12a5.78,5.78,0,0,1-.08.7c0,.23-.12.47-.18.71s-.11.44-.19.65-.19.44-.29.65-.21.49-.34.73a11.09,11.09,0,0,1-.78,1.24L1338.25,780a12.62,12.62,0,0,1-1.06,1.26l-.15.16c-.28.28-.57.55-.88.82s-.5.43-.76.63-.46.36-.7.53-.57.39-.86.57-.56.36-.85.53l-.48.27c-.39.21-.8.41-1.21.61l-.43.2q-.82.39-1.71.72c-.11,0-.23.07-.34.12l-1.4.47q-.63.2-1.29.36l-.92.25c-.46.11-.94.21-1.41.3l-.87.18c-.91.16-1.83.28-2.77.38l-.88.08c-.54,0-1.08.08-1.63.1-.36,0-.73,0-1.1,0s-.86,0-1.29,0l-1.18,0-1.18-.06c-.4,0-.8-.06-1.2-.11s-.78-.08-1.16-.13l-1.17-.17-1.26-.22c-.62-.12-1.23-.24-1.85-.39l-.14,49.54,1.37.31.48.08c.42.08.84.16,1.26.22l.69.12c.16,0,.32,0,.47.06l1.17.13.72.08.48,0,1.18.06c.24,0,.48,0,.71,0h.47c.43,0,.86,0,1.29,0h.71l.39,0c.55,0,1.09-.06,1.63-.1l.67,0,.21,0c.94-.1,1.86-.22,2.77-.38l.15,0,.72-.16c.47-.09.95-.19,1.41-.3l.92-.25q.66-.16,1.29-.36c.1,0,.22-.06.32-.09.37-.12.72-.25,1.08-.38l.34-.12c.59-.22,1.16-.46,1.71-.71l.43-.21c.41-.2.82-.4,1.21-.61l.48-.27.37-.21.48-.32c.29-.18.58-.37.86-.57s.47-.35.7-.53.52-.41.76-.63l.29-.24c.21-.19.4-.39.59-.58l.15-.16a10.92,10.92,0,0,0,.78-.9,4.22,4.22,0,0,0,.27-.36l181.36-248.22c.27-.37.51-.75.73-1.12l0-.12c.13-.24.23-.48.34-.73s.19-.36.26-.54l0-.11c.08-.21.13-.43.19-.65s.13-.4.17-.6a.41.41,0,0,0,0-.11,5.78,5.78,0,0,0,.08-.7c0-.19.06-.38.07-.57v-.21l.14-49.54A6.85,6.85,0,0,1,1521.46,527.12Z" transform="translate(-359.74 -138.07)"/><path class="cls-3" d="M1514.31,516.26c6.87,4,9.29,10.08,5.29,15.54L1338.25,780c-5.26,7.18-19.57,10.52-32,7.46L475.52,582.55a29.25,29.25,0,0,1-7.71-3c-6.85-3.95-9.27-10.07-5.28-15.54L643.89,315.79c5.25-7.19,19.57-10.53,32-7.47l830.74,204.94A29.44,29.44,0,0,1,1514.31,516.26Z" transform="translate(-359.74 -138.07)"/></g><path class="cls-5" d="M1491.71,521.88a27,27,0,0,0-7-2.73L683.44,321.49c-11.27-2.78-24.29.25-29.05,6.78L485.49,559.44c-3.63,5-1.44,10.52,4.79,14.12a27.18,27.18,0,0,0,7,2.73L1298.55,774c11.29,2.78,24.29-.25,29-6.78L1496.51,536c3.63-5,1.43-10.53-4.8-14.12" transform="translate(-359.74 -138.07)"/><g class="cls-6"><path class="cls-8" d="M1483.34,735.27l.35-123.1,21.14-12.29-.35,123.1a10.68,10.68,0,0,1-1.49,5.87,6.16,6.16,0,0,1-2.11,2l-21.14,12.28C1482,741.9,1483.33,739.16,1483.34,735.27Z" transform="translate(-359.74 -138.07)"/><path class="cls-3" d="M1311.07,498.41A10.13,10.13,0,0,0,1310,498l-.07,0c-.31-.1-.6-.17-.9-.25l-.51-.1a4.87,4.87,0,0,0-.65-.1l-.37,0a7,7,0,0,0-.79,0h-.18a6.45,6.45,0,0,0-.91.12l-.22.05a6.75,6.75,0,0,0-.68.19l-.21.08a6,6,0,0,0-.81.38L1324.85,486l.07,0a5.12,5.12,0,0,1,.62-.31l.12,0,.21-.07.32-.12.36-.08.22-.05.12,0a6,6,0,0,1,.74-.08h.23c.2,0,.39,0,.59,0l.2,0,.37,0,.35,0,.31.07a4.48,4.48,0,0,1,.5.11l.28.05.62.2.07,0c.25.08.5.18.76.29l.3.13.3.14c.37.17.75.36,1.13.58l158.89,91.74c.4.23.79.48,1.18.75l.37.27c.26.19.52.38.78.59l.42.35c.24.19.47.4.7.61l.42.38c.08.09.17.16.26.25l.26.28c.28.28.55.57.82.87l.27.29.2.25c.17.19.33.38.48.58s.22.25.32.39l.24.32.34.47.24.32c.13.18.25.37.37.55s.17.24.24.37l.1.14c.22.35.44.7.64,1a.43.43,0,0,1,0,.07l.12.21c.14.25.29.5.42.76l.18.35.19.37.16.33c.14.28.27.57.4.87l.07.15,0,.05c.16.36.31.73.45,1.1l.08.21c0,.13.09.27.14.4s.14.37.2.56.09.28.13.43.11.34.16.51l.1.31c0,.19.09.38.13.57s.11.42.16.63,0,.15.05.22,0,.3.08.45c.06.33.12.66.17,1a2.56,2.56,0,0,0,0,.27l.06.61c0,.15,0,.29,0,.44,0,.46.06.91,0,1.36l-21.14,12.29c0-.45,0-.91,0-1.36,0-.15,0-.29-.05-.44s-.06-.59-.1-.89-.11-.65-.17-1-.09-.45-.14-.67-.1-.42-.15-.64-.15-.58-.23-.87-.11-.34-.16-.51q-.15-.49-.33-1l-.15-.41q-.26-.67-.54-1.35l-.08-.16c-.17-.4-.36-.8-.56-1.19l-.18-.37c-.2-.37-.4-.75-.6-1.11a2.39,2.39,0,0,1-.12-.22q-.37-.63-.78-1.26l-.24-.36c-.2-.29-.4-.59-.61-.88l-.34-.46c-.19-.24-.37-.48-.56-.71l-.48-.59c-.15-.18-.31-.35-.47-.53s-.54-.59-.82-.87-.35-.36-.53-.53l-.41-.39-.7-.61-.42-.35-.78-.58-.37-.27c-.39-.27-.78-.52-1.18-.75l-158.9-91.74c-.38-.22-.75-.41-1.13-.59Z" transform="translate(-359.74 -138.07)"/><path class="cls-7" d="M1312.49,499.13c-6.81-3.93-12.36-.78-12.38,7.05l-.35,123.1c0,7.83,5.49,17.37,12.3,21.31L1471,742.32c6.82,3.94,12.36.78,12.38-7.05l.35-123.1c0-7.83-5.48-17.36-12.3-21.3Z" transform="translate(-359.74 -138.07)"/></g><g class="cls-6"><path class="cls-9" d="M719.37,432.23,719,309.13l-21.14-12.29.35,123.1c0,3.89,1.38,6.63,3.6,7.92L723,440.14C720.76,438.86,719.38,436.12,719.37,432.23Z" transform="translate(-359.74 -138.07)"/><path class="cls-7" d="M892.71,194.94l.06,0c.31-.1.61-.18.91-.25l.5-.11.65-.1c.13,0,.25,0,.38,0a7,7,0,0,1,.79,0h.18a6.86,6.86,0,0,1,.91.12l.22.05a5.27,5.27,0,0,1,.68.19l.21.08a5.86,5.86,0,0,1,.8.38h0l-21.14-12.29-.07,0a5.92,5.92,0,0,0-.62-.3l-.12,0-.21-.08-.32-.11-.36-.08-.21,0-.12,0q-.36-.06-.75-.09h-.81l-.21,0-.37,0c-.11,0-.23,0-.34,0l-.31.07-.51.1a2.61,2.61,0,0,1-.27.06l-.63.2-.06,0c-.25.08-.51.18-.76.28l-.31.14-.29.14a12.1,12.1,0,0,0-1.13.58l-158.9,91.74c-.4.23-.79.48-1.18.75l-.37.27c-.26.19-.52.38-.77.59l-.43.34-.69.61-.42.39a3.07,3.07,0,0,0-.26.25l-.27.28c-.28.28-.55.57-.82.87-.08.1-.18.19-.26.28l-.21.25L704,281l-.31.38c-.09.11-.16.22-.24.33l-.35.46-.23.33-.38.55-.24.36-.1.15c-.22.35-.43.7-.64,1.05l0,.07a1.28,1.28,0,0,1-.11.2l-.43.77-.18.35-.18.37c-.06.11-.12.22-.17.33-.14.28-.27.57-.39.86l-.08.16,0,0q-.24.56-.45,1.11a1.18,1.18,0,0,0-.07.2l-.15.4c-.06.19-.14.37-.2.56s-.09.29-.13.43-.11.34-.16.51l-.09.32c0,.18-.09.37-.14.56s-.11.42-.15.63l-.06.22c0,.15-.05.3-.08.45-.06.33-.12.66-.17,1,0,.09,0,.18,0,.27s0,.41-.06.61,0,.29-.05.44c0,.46,0,.91,0,1.36L719,309.13c0-.45,0-.9.06-1.36,0-.15,0-.3,0-.44s.07-.59.11-.89.1-.65.17-1,.08-.45.13-.67l.15-.63c.08-.3.15-.59.24-.88l.15-.51c.11-.33.22-.66.34-1,0-.14.09-.27.14-.41.17-.45.35-.9.55-1.35,0-.06,0-.11.07-.17.18-.39.37-.79.56-1.18.06-.13.13-.25.19-.37.19-.38.39-.75.6-1.12l.12-.21q.38-.63.78-1.26c.07-.12.16-.24.24-.36.2-.3.4-.59.61-.88s.22-.31.34-.46.37-.48.56-.71.31-.4.48-.59.31-.35.47-.53.54-.59.82-.88l.52-.52.42-.39.7-.61.42-.35c.26-.2.51-.39.78-.58s.24-.19.37-.27q.58-.4,1.17-.75l158.9-91.74c.38-.22.76-.41,1.13-.59l.29-.13C892,195.21,892.36,195.06,892.71,194.94Z" transform="translate(-359.74 -138.07)"/><path class="cls-3" d="M890.22,196.09c6.82-3.93,12.36-.78,12.38,7l.35,123.1c0,7.83-5.48,17.37-12.3,21.31l-26.49,15.29.08,28.86-27.75-12.88L731.75,439.28c-6.81,3.94-12.36.78-12.38-7L719,309.13c0-7.83,5.49-17.37,12.3-21.3Z" transform="translate(-359.74 -138.07)"/></g><path class="cls-7" d="M732.79,482.88,818,449.56l-32.66,45.93-52.52-12.61M891.85,427.5l-59.71-14.34-156.91,58-17.74,24.95,105,25.23-16.72,23.51,53.47,12.83L816,534.19l25.63,6.16,19-26.77L835,507.43l56.83-79.93" transform="translate(-359.74 -138.07)"/><path class="cls-7" d="M947.06,557a17,17,0,0,1-6.22-5.67q-4.14-6.81-.9-15.46t12-20.94q13-18.27,26.87-26.47t35.45-3a51.31,51.31,0,0,1,13.41,4.94q8.1,4.68,8,11.75-.14,11.5-13.11,29.78a123.81,123.81,0,0,1-17,19.74,47.72,47.72,0,0,1-19.42,10.58q-11.19,3.13-26.2-.47A49.3,49.3,0,0,1,947.06,557m122.28-87.75q-13.2-7.62-34.54-12.75-46.27-11.1-79.78,1.8t-55.64,44Q877,533.83,885.06,556.71q4.35,12.35,19.79,21.25,13.21,7.63,34.54,12.75,46.27,11.12,79.79-1.8t55.89-44.37q22.13-31.11,14.06-54-4.34-12.35-19.79-21.26" transform="translate(-359.74 -138.07)"/><path class="cls-7" d="M1148.26,582.64l85.18-33.32-32.66,45.94-52.52-12.62m159.06-55.38-59.71-14.34-156.9,58-17.75,25,105,25.22-16.72,23.51,53.46,12.83,16.71-23.5,25.63,6.15,19-26.76-25.64-6.16,56.84-79.93" transform="translate(-359.74 -138.07)"/><path class="cls-5" d="M1364.83,643.78A94.43,94.43,0,0,1,1351,620.47l11,6.37c.67,5.37,1.59,11,2.81,16.94m-17.3-33.47a64.87,64.87,0,0,1-2.35-16.87,38.23,38.23,0,0,1,2.5-14.25l13.58,7.84a175.2,175.2,0,0,0-.13,31.13l-13.6-7.85m3.71-37.23a19.05,19.05,0,0,1,13.75-7.16,118.41,118.41,0,0,0-2.79,13.49l-11-6.33m54.92,31.71c-.81-6.53-1.81-12.21-2.71-16.67a94.56,94.56,0,0,1,13.67,23l-11-6.33m-36.68-21.18a99.79,99.79,0,0,1,4-16.91,41.58,41.58,0,0,1,10.75,4.48,62.74,62.74,0,0,1,10.73,7.93,198.79,198.79,0,0,1,3.91,21.48l-29.4-17M1384.26,563c-25.38-14.66-46.09-2.85-46.17,26.31s20.49,64.81,45.87,79.47a51.13,51.13,0,0,0,10.71,4.73,61.82,61.82,0,0,1-4.07-9.72,44.5,44.5,0,0,1-6.61-3.17,62.93,62.93,0,0,1-10.71-7.9,205.29,205.29,0,0,1-4-21.74l19.91,11.5a17.72,17.72,0,0,1,3-6.42l-23.89-13.79a167.7,167.7,0,0,1,.18-31.09l31.33,18.08a181.28,181.28,0,0,1,.61,21.8,17.33,17.33,0,0,1,7.27.37c.08-6.28-.18-12.34-.65-18l13.58,7.84a64.8,64.8,0,0,1,2.41,17.08c0,.7,0,1.41,0,2.09a57.85,57.85,0,0,1,6.83,7.72,52.44,52.44,0,0,0,.3-5.72c.09-29.16-20.5-64.8-45.87-79.45" transform="translate(-359.74 -138.07)"/><path class="cls-3" d="M1414.91,687.76A38.88,38.88,0,0,1,1402.18,675c-.43-.67-.84-1.36-1.24-2.06a47,47,0,0,1-3.36-7.25,39.19,39.19,0,0,1-1.48-5.1,31.27,31.27,0,0,1-.75-6.7,19.36,19.36,0,0,1,1.23-7.1,11.82,11.82,0,0,1,2.28-3.69l.55,1,3.79,6.55,2.44,4.23,5.18,9,5,8.66,10.24,17.73c-3.17.69-7-.05-11.14-2.44m16.17-.43-10.51-18.21-5-8.74-2.3-4-6.31-10.91-.76-1.33-2.26-3.92a11.34,11.34,0,0,1,3.47-.2,18.77,18.77,0,0,1,7.66,2.63,33,33,0,0,1,6.93,5.46,45,45,0,0,1,6.3,8.09c3.91,6.41,6.35,13.75,6.34,20.33,0,4.75-1.31,8.41-3.52,10.78m-16-52.81a28.64,28.64,0,0,0-7.36-3.06,17.33,17.33,0,0,0-7.27-.37,13.16,13.16,0,0,0-8.23,5,17.72,17.72,0,0,0-3,6.42,28,28,0,0,0-.9,7.29,45.77,45.77,0,0,0,2.34,14,61.82,61.82,0,0,0,4.07,9.72c4.89,9.37,12.14,17.72,20.21,22.38,14.74,8.51,26.76,1.65,26.81-15.27,0-10.66-4.69-22.79-11.86-32.45a57.85,57.85,0,0,0-6.83-7.72,44.29,44.29,0,0,0-7.94-6" transform="translate(-359.74 -138.07)"/><path class="cls-7" d="M664.25,438.42s-19.17-14.26-26.83-13.31,0-70.81,0-70.81l21.33-2.41,1,15.24,4.54,43.72Z" transform="translate(-359.74 -138.07)"/><path class="cls-10" d="M637.66,533.75c-1.59,3.19-3.21,6.73-2.36,10.2a14,14,0,0,0,2.12,4.27A86.69,86.69,0,0,0,648.65,562c1.5,1.5,3.15,3.1,3.49,5.19.44,2.7-1.55,5.32-4,6.52s-5.28,1.3-8,1.38c-2.9.08-6,.1-8.43-1.48a13.47,13.47,0,0,1-3.83-4.44,115.77,115.77,0,0,1-13-28.73l7.4-12.29A28.52,28.52,0,0,1,637.66,533.75Z" transform="translate(-359.74 -138.07)"/><path class="cls-11" d="M639,538.43s-14.18,3.33-20.16-7.12l2.29-25.59,1.71-19.09-6.31-67.29L610.88,359l31.45-2.13C643.28,358.79,675.12,464.3,639,538.43Z" transform="translate(-359.74 -138.07)"/><path class="cls-10" d="M582.57,551.35c-1.59,3.2-3.22,6.74-2.36,10.2a14,14,0,0,0,2.12,4.28,87.14,87.14,0,0,0,11.23,13.75c1.5,1.5,3.14,3.1,3.49,5.19.44,2.7-1.55,5.32-4,6.52s-5.28,1.3-8,1.37c-2.9.08-6,.11-8.43-1.47a13.5,13.5,0,0,1-3.83-4.45,115.54,115.54,0,0,1-13-28.72l7.4-12.29A28.51,28.51,0,0,1,582.57,551.35Z" transform="translate(-359.74 -138.07)"/><path class="cls-10" d="M638.56,477.38c-4,15-17.43,28.34-17.43,28.34l1.71-19.09-6.31-67.29c1.7-27.54,5-48.61,11.64-33.61C642.74,418.82,642.6,462.41,638.56,477.38Z" transform="translate(-359.74 -138.07)"/><path class="cls-11" d="M622.93,359.11c7.89,37.7,17.74,91.41,8.94,121.82-13.58,28.69-35.7,55.41-50,73.44a16.48,16.48,0,0,1-16.85-8.61c6.91-14.39,28.43-60.53,38.58-79.58-8.52-16.07-12.41-32-16.23-49.77s-4.34-34.5-.23-53.5C598,359.62,611.66,358.71,622.93,359.11Z" transform="translate(-359.74 -138.07)"/><path class="cls-3" d="M656.2,364.28s-9.8,13.78-34,10.93-22-113.07-22-113.07l17.46-5.27h19.76Z" transform="translate(-359.74 -138.07)"/><path class="cls-5" d="M666.55,231.11l-31.46,7.47c.3,8.22,3.09,16.12,6.59,23.56,18.47-3.68,34.42-14.89,49.76-25.83a4.24,4.24,0,0,0,1.89-2.15c.55-2-2-3.52-4-4C681.36,228.06,674.55,229.2,666.55,231.11Z" transform="translate(-359.74 -138.07)"/><path class="cls-5" d="M606.8,262.3C643.71,301,614.88,454,614.88,454h0c-20.79-1.7-40.57-6.29-48-7.3,1.3-12.68,20.89-123.22,15.38-134.71-4.07-8.5-10-16.82-9.54-26.22.32-5.93,3.26-11.47,7.16-15.95s8.73-8,13.52-11.53c4.22-3.1,8.7-5.82,13.16-8.57Z" transform="translate(-359.74 -138.07)"/><path class="cls-5" d="M673.59,438.31a26,26,0,0,1-9.34,9.18c-1.63-86-36.84-186.59-36.84-186.59l-11-17.48c1.87-1.3,3.7-2.65,5.47-4.09a12.32,12.32,0,0,1,15.91.78c2.87,2.86,4.08,6.93,5.09,10.85C650.56,280.84,675.84,434.46,673.59,438.31Z" transform="translate(-359.74 -138.07)"/><path class="cls-12" d="M631.13,196.12c2.75.79,4.88,3,6.38,5.47s2.49,5.16,3.85,7.68,3.21,4.93,5.81,6.15c-.37,4-.19,8-.56,12-4.12-1.34-8.24-3.22-12.36-4.56-1.92-.63-4-1.33-5.22-2.91-1.82-2.28-1.44-5.55-1-8.43C629,206.26,630.25,201.38,631.13,196.12Z" transform="translate(-359.74 -138.07)"/><path class="cls-12" d="M627.41,260.9a19.06,19.06,0,0,1-20.61,1.4,82.65,82.65,0,0,1-1.2-16.52,88.38,88.38,0,0,1,1-11.45c6.74.91,12.86,2.37,19.6,3.28q.19,4,.41,8C626.88,250.7,627.15,255.8,627.41,260.9Z" transform="translate(-359.74 -138.07)"/><path class="cls-11" d="M629.72,218l3.47-14.36c.65-2.68,1.29-5.5.56-8.16s-3.35-5-6-4.43c0-4.59-4.47-8.69-8.9-9.86s-9.18-.1-13.39,1.7c-7.28,3.12-13.7,8.6-17.09,15.76s-3.45,16,.64,22.8c3.62,6,9.9,9.81,15.94,13.38C614.34,232.4,627.43,227.42,629.72,218Z" transform="translate(-359.74 -138.07)"/><path class="cls-7" d="M626.63,245.59c-4.18,2.56-10,4-17.82,1.4-1.15-.38-2.21-.79-3.21-1.21a88.38,88.38,0,0,1,1-11.45c6.74.91,12.86,2.37,19.6,3.28Q626.42,241.6,626.63,245.59Z" transform="translate(-359.74 -138.07)"/><path class="cls-12" d="M610.12,237.79c3.24-4.92,6.55-10,7.45-15.86a3.86,3.86,0,0,0-.1-2.08,1.49,1.49,0,0,0-1.67-1,2.19,2.19,0,0,0-.84.58c-1.24,1.15-3,2.5-4.18,3.65.19-3.41.36-6.93-.75-10.16s-3.33-6.54-6.74-6.82c-6.19,4.37-7.43,12.27-8,19.82a23.69,23.69,0,0,0,2.4,12.36,6,6,0,0,1,.22,2.85,18.1,18.1,0,0,0,9.74,2.3A24.81,24.81,0,0,1,610.12,237.79Z" transform="translate(-359.74 -138.07)"/><path class="cls-12" d="M605.28,236.86c6.81,4.36,16.39,6.71,23.35,2.61,2.46-1.44,3.17-4.63,3.45-7.47A65.35,65.35,0,0,0,628,201.93c-1.23-3.14-5.55-4.09-8.69-5.3a7.46,7.46,0,0,0-4.86-.52,6,6,0,0,0-3.47,3.38,18,18,0,0,0-1.19,4.83,9.48,9.48,0,0,1-4,11.77C605.77,222.66,605.3,230.28,605.28,236.86Z" transform="translate(-359.74 -138.07)"/><path class="cls-5" d="M609.16,242.84a24.53,24.53,0,0,0-15.53-.92,327.14,327.14,0,0,0-15.47,48.75c-1,4.54-1.94,9.22-1.24,13.82s3.35,9.16,7.66,10.93c5.66,2.32,12.38-1,15.93-6s4.68-11.26,5.72-17.29C609,275.9,610.41,259.28,609.16,242.84Z" transform="translate(-359.74 -138.07)"/><path class="cls-5" d="M689.88,237.89c-15.45,1.42-30.7-2.34-44.79-8.83a35.6,35.6,0,0,1,3-16.13c14.74.62,28.87,2.56,42.92,7,3.67,1.18,7.83,3,8.69,6.79.63,2.75-.87,5.63-3,7.44S692.69,237.64,689.88,237.89Z" transform="translate(-359.74 -138.07)"/><path class="cls-7" d="M527.23,246.66a13.12,13.12,0,0,1-4.37-10,13.56,13.56,0,0,1,4.37-10.27,15.73,15.73,0,0,1,11.26-4.13,15.53,15.53,0,0,1,11.11,4.13A13.56,13.56,0,0,1,554,236.62a13.12,13.12,0,0,1-4.37,10,15.65,15.65,0,0,1-11.11,4.06A15.85,15.85,0,0,1,527.23,246.66Zm25.06-108.59-3.07,73.42H527l-3.07-73.42Z" transform="translate(-359.74 -138.07)"/><circle class="cls-5" cx="854.65" cy="210.9" r="28.51"/><circle class="cls-5" cx="759.59" cy="134.62" r="10.45"/><circle class="cls-4" cx="859.88" cy="209.71" r="28.51"/><line class="cls-13" x1="897.24" y1="313.6" x2="541.79" y2="225.92"/><line class="cls-13" x1="121.11" y1="400.87" x2="202.79" y2="289.07"/><line class="cls-13" x1="543.21" y1="98.72" x2="543.21" y2="181.2"/><line class="cls-13" x1="542.92" y1="86.36" x2="542.92" y2="66.76"/><line class="cls-13" x1="115.55" y1="408.48" x2="107.86" y2="419"/><circle class="cls-3" cx="1149.18" cy="110.29" r="71.11"/><circle class="cls-3" cx="30.14" cy="390.05" r="30.14"/><line class="cls-13" x1="504.42" y1="224.77" x2="528.15" y2="211.13"/><path class="cls-13" d="M926.31,366.28s3.3-1.16,7.31-8.11" transform="translate(-359.74 -138.07)"/></g></g></g></g></svg>